<?xml version="1.0" encoding="UTF-8" standalone="no"?>
<!-- Created with Inkscape (http://www.inkscape.org/) -->

<svg
   width="160mm"
   height="160mm"
   viewBox="0 0 160 160"
   version="1.1"
   id="svg5"
   xml:space="preserve"
   inkscape:version="1.2.2 (b0a8486541, 2022-12-01)"
   sodipodi:docname="gomc.svg"
   xmlns:inkscape="http://www.inkscape.org/namespaces/inkscape"
   xmlns:sodipodi="http://sodipodi.sourceforge.net/DTD/sodipodi-0.dtd"
   xmlns="http://www.w3.org/2000/svg"
   xmlns:svg="http://www.w3.org/2000/svg"><sodipodi:namedview
     id="namedview7"
     pagecolor="#ffffff"
     bordercolor="#000000"
     borderopacity="0.25"
     inkscape:showpageshadow="2"
     inkscape:pageopacity="0.0"
     inkscape:pagecheckerboard="0"
     inkscape:deskcolor="#d1d1d1"
     inkscape:document-units="mm"
     showgrid="false"
     inkscape:zoom="0.75277075"
     inkscape:cx="499.48806"
     inkscape:cy="526.72078"
     inkscape:window-width="1920"
     inkscape:window-height="996"
     inkscape:window-x="1920"
     inkscape:window-y="28"
     inkscape:window-maximized="1"
     inkscape:current-layer="layer1" /><defs
     id="defs2" /><g
     inkscape:label="Ebene 1"
     inkscape:groupmode="layer"
     id="layer1"><g
       id="g263"
       transform="matrix(0.99442409,0,0,0.97326126,-26.7249,-51.32158)"><path
         style="display:inline;fill:#2c72d2;stroke-width:0.264583"
         d="m 101.88603,152.01875 c -0.29104,-0.0581 -1.18401,-0.23556 -1.984377,-0.39428 -17.536426,-3.47765 -18.588036,-28.25241 -1.455208,-34.28303 l 2.116665,-0.74505 11.57552,-0.0814 11.57552,-0.0814 v 4.76388 4.76388 l -10.64948,0.08 c -10.29535,0.0773 -10.69098,0.0992 -11.89758,0.65658 -6.50502,3.00521 -6.845605,11.84853 -0.57521,14.93543 1.70818,0.84094 1.74785,0.84673 6.46737,0.94344 l 4.74865,0.0973 v -4.63837 -4.63837 h 5.95651 5.95651 l -0.0695,9.32656 -0.0695,9.32656 -10.58333,0.037 c -5.82084,0.0203 -10.82146,-0.0106 -11.1125,-0.0687 z"
         id="path267"
         sodipodi:nodetypes="ssscccccccssccccccccss" /><path
         style="display:inline;fill:#47494b;stroke-width:0.264583"
         d="m 127.61265,211.7074 c -7.30696,-1.84331 -9.11555,-11.33164 -3.02461,-15.86782 l 1.24278,-0.92555 v -17.92876 -17.92876 l 11.70781,0.0689 11.70781,0.0689 0.0579,11.48829 0.0579,11.48829 0.80762,0.83325 c 0.79929,0.82466 0.83009,0.83212 2.98479,0.72304 8.08166,-0.40911 12.54808,8.75825 7.17743,14.7317 -6.57593,7.31401 -18.36597,-0.3037 -14.70167,-9.49895 l 0.5799,-1.4552 -2.38456,-2.20624 -2.38456,-2.20622 v -8.00734 -8.00735 l -2.18281,-0.13033 c -1.20054,-0.0717 -2.9989,-0.10741 -3.99635,-0.0794 l -1.81354,0.0509 -0.0198,1.56173 c -0.0109,0.85895 0.005,7.15766 0.0347,13.99714 l 0.0546,12.43542 1.08923,0.66146 c 8.33449,5.06129 2.49627,18.52712 -6.99455,16.13289 z m 4.05935,-6.58754 c 1.75913,-1.75913 0.57151,-4.78285 -1.87854,-4.78285 -2.19585,0 -3.53095,2.25406 -2.50744,4.23332 0.8182,1.58222 3.07103,1.86449 4.38598,0.54953 z m 24.07709,-10.58333 c 1.50088,-1.50089 0.85151,-4.10217 -1.19243,-4.77673 -2.26835,-0.74863 -4.40507,1.87529 -3.29488,4.04616 0.86489,1.6912 3.15399,2.06388 4.48731,0.73057 z m -62.726603,0.95954 v -6.42844 l -2.050521,-0.47566 c -4.855651,-1.12635 -11.108954,-3.67246 -15.187622,-6.18383 l -1.760016,-1.0837 -4.45665,4.34691 c -2.451155,2.3908 -4.583832,4.34691 -4.739282,4.34691 -0.33686,0 -16.255907,-15.97112 -16.255907,-16.30908 0,-0.12847 1.905,-2.13579 4.233333,-4.46071 4.783426,-4.77642 4.496472,-4.2847 3.416464,-5.85444 -2.366444,-3.43951 -5.45339,-10.90159 -6.361789,-15.37838 l -0.335548,-1.65364 h -6.297064 -6.297062 v -11.77396 -11.77396 h 6.301623 6.301621 l 0.480393,-2.05052 c 1.06502,-4.54594 3.789828,-11.15909 6.060268,-14.70836 1.293479,-2.02203 1.506141,-1.60987 -3.335052,-6.463547 l -4.299479,-4.310562 4.7625,-4.665168 c 2.619375,-2.565841 6.342274,-6.219835 8.273108,-8.119982 l 3.510608,-3.454816 4.441483,4.435721 4.441486,4.435721 1.572906,-0.958437 c 4.108397,-2.503419 10.584087,-5.123405 15.66197,-6.336646 l 1.918229,-0.458317 0.03005,-5.064728 c 0.01654,-2.785599 0.04629,-5.66004 0.06615,-6.387644 l 0.0361,-1.322917 11.972393,-0.06884 11.9724,-0.06884 v 15.112253 c 0,13.327075 -0.0469,15.094256 -0.39703,14.959898 -12.69877,-4.872974 -29.311722,-1.106156 -39.432311,8.940871 -19.46525,19.32375 -14.447102,51.66104 9.917323,63.90792 8.444947,4.24488 19.987108,5.21158 28.256278,2.36657 0.8107,-0.27892 1.51489,-0.50713 1.56487,-0.50713 0.05,0 0.0909,6.72703 0.0909,14.94896 v 14.94896 H 105.06103 93.022487 Z m 73.680873,-16.85899 c -6.94358,-0.98229 -9.69359,-10.25456 -4.46951,-15.06995 3.65404,-3.36817 9.21064,-3.19691 12.51294,0.38566 5.78154,6.27223 0.5109,15.89445 -8.04343,14.68429 z m 3.47162,-6.71632 c 2.07557,-2.07557 0.28106,-5.28599 -2.64231,-4.72716 -3.01869,0.57706 -2.33324,5.62674 0.76377,5.62674 0.76055,0 1.17966,-0.2007 1.87854,-0.89958 z M 144.56834,151.9611 c -0.42095,-0.10393 -1.11457,-0.71298 -1.70606,-1.49805 -0.5482,-0.7276 -2.12378,-2.75167 -3.5013,-4.49792 -1.37752,-1.74625 -2.60445,-3.3067 -2.72652,-3.46767 -0.34928,-0.4606 4.99413,-4.731 5.44821,-4.35415 0.19324,0.16038 1.58203,1.8966 3.08619,3.85827 l 2.73485,3.56668 h 11.85815 11.85816 l -0.0743,3.24114 -0.0743,3.24115 -13.09687,0.0428 c -7.20328,0.0236 -13.41608,-0.036 -13.80623,-0.13229 z m 4.54581,-21.3418 v -3.04271 h 5.5094 5.5094 l -0.0139,-2.57968 c -0.0452,-8.35241 9.53235,-12.19799 15.24215,-6.12005 6.24699,6.64977 -0.96418,17.36883 -9.62703,14.31011 -1.47725,-0.5216 -1.51209,-0.52209 -1.95924,-0.028 -0.42584,0.47053 -0.91424,0.50304 -7.558,0.50304 h -7.10274 z m 21.76198,-3.83144 c 2.43874,-2.70523 -1.35604,-6.44096 -3.92906,-3.86793 -0.72056,0.72056 -0.89959,1.10836 -0.89959,1.94869 0,2.67245 3.05499,3.88671 4.82865,1.91924 z m -31.81615,-5.34518 c -1.0914,-1.32846 -2.13406,-2.6265 -2.31701,-2.88454 -0.29892,-0.4216 0.81444,-1.38759 10.98021,-9.5269 l 11.31285,-9.057725 0.19139,-1.809615 c 1.16191,-10.985364 16.97891,-10.945889 17.60645,0.04395 0.36275,6.35278 -5.79245,10.87428 -11.95799,8.78412 l -1.56847,-0.53173 -2.53257,2.04734 c -6.02811,4.87316 -19.38196,15.36423 -19.54842,15.35766 -0.10013,-0.004 -1.07503,-1.09411 -2.16644,-2.42256 z m 30.85042,-20.69484 c 1.80802,-1.808017 0.61964,-4.921245 -1.87854,-4.921245 -1.4532,0 -2.77813,1.388012 -2.77813,2.910416 0,1.522409 1.32493,2.910419 2.77813,2.910419 0.76055,0 1.17966,-0.2007 1.87854,-0.89959 z M 125.83082,90.948245 V 74.692809 l -1.15524,-0.829633 c -6.97215,-5.007017 -3.37341,-15.957493 5.25628,-15.994167 9.11574,-0.03874 12.34305,12.817546 4.16719,16.600415 l -0.59532,0.275444 v 16.229406 16.229406 h -3.83645 -3.83646 z m 6.11155,-22.401714 c 1.23774,-1.324999 0.93208,-3.568489 -0.59367,-4.357487 -1.98978,-1.028951 -4.19496,0.233244 -4.19496,2.401094 0,2.514462 3.08858,3.776303 4.78863,1.956393 z m 9.49611,24.17121 -0.003,-7.342187 2.30538,-2.136389 2.30539,-2.136391 -0.46864,-1.227122 c -3.35543,-8.786074 7.32245,-16.072748 14.22683,-9.708512 6.07672,5.601319 1.96709,15.208414 -6.5057,15.208414 -2.47394,0 -2.58993,0.02672 -3.37343,0.777105 l -0.81141,0.777105 v 6.565082 6.565084 h -3.83646 -3.83646 l -0.003,-7.342189 z m 13.33813,-13.399656 c 2.8062,-1.172506 2.10665,-5.451906 -0.89121,-5.451906 -3.25717,0 -4.10483,4.629968 -1.01101,5.522211 0.47848,0.137994 0.90356,0.261636 0.94461,0.27476 0.0411,0.01312 0.47198,-0.142153 0.95761,-0.345065 z"
         id="path265"
         inkscape:label="path265" /></g></g></svg>
